HIERARCHY
ROOT Hips
{
	OFFSET 0.000000 0.000000 0.000000
	CHANNELS 6 Xposition Yposition Zposition Xrotation Yrotation Zrotation
	JOINT LeftUpLeg_virtual
	{
		OFFSET 0.000000 0.000000 0.000000
		CHANNELS 3 Xrotation Yrotation Zrotation
		JOINT LeftUpLeg
		{
			OFFSET 10.205400 -3.823500 0.155100
			CHANNELS 3 Xrotation Yrotation Zrotation
			JOINT LeftLeg
			{
				OFFSET 0.708757 -12.982077 0.567790
				CHANNELS 3 Xrotation Yrotation Zrotation
				JOINT LeftFoot
				{
					OFFSET -0.708756 -10.717838 -2.184338
					CHANNELS 3 Xrotation Yrotation Zrotation
					JOINT LeftToeBase
					{
						OFFSET 0.108149 -7.191104 7.560241
						CHANNELS 3 Xrotation Yrotation Zrotation
						JOINT LeftToe_End
						{
							OFFSET 0.070230 0.081724 4.490308
							CHANNELS 3 Xrotation Yrotation Zrotation
							End Site
							{
								OFFSET 0 0 0
							}
						}
					}
				}
			}
		}
	}
	JOINT RightUpLeg_virtual
	{
		OFFSET 0.000000 0.000000 0.000000
		CHANNELS 3 Xrotation Yrotation Zrotation
		JOINT RightUpLeg
		{
			OFFSET -10.205400 -3.823500 0.005500
			CHANNELS 3 Xrotation Yrotation Zrotation
			JOINT RightLeg
			{
				OFFSET -0.708756 -12.982134 0.610632
				CHANNELS 3 Xrotation Yrotation Zrotation
				JOINT RightFoot
				{
					OFFSET 0.708754 -10.717769 -1.945823
					CHANNELS 3 Xrotation Yrotation Zrotation
					JOINT RightToeBase
					{
						OFFSET -0.108140 -7.191069 7.372968
						CHANNELS 3 Xrotation Yrotation Zrotation
						JOINT RightToe_End
						{
							OFFSET -0.070227 0.081735 4.479403
							CHANNELS 3 Xrotation Yrotation Zrotation
							End Site
							{
								OFFSET 0 0 0
							}
						}
					}
				}
			}
		}
	}
	JOINT Spine_virtual
	{
		OFFSET 0.000000 0.000000 0.000000
		CHANNELS 3 Xrotation Yrotation Zrotation
		JOINT Spine
		{
			OFFSET 0.000000 6.876099 0.125700
			CHANNELS 3 Xrotation Yrotation Zrotation
			JOINT Spine1
			{
				OFFSET 0.000000 5.730043 0.104720
				CHANNELS 3 Xrotation Yrotation Zrotation
				JOINT Spine1_split
				{
					OFFSET 0.000000 5.730043 0.104720
					CHANNELS 3 Xrotation Yrotation Zrotation
					JOINT Spine2
					{
						OFFSET 0.000000 5.730043 0.104720
						CHANNELS 3 Xrotation Yrotation Zrotation
						JOINT Neck_virtual
						{
							OFFSET 0.000000 0.000000 0.000000
							CHANNELS 3 Xrotation Yrotation Zrotation
							JOINT Neck
							{
								OFFSET 0.000000 10.314075 0.188496
								CHANNELS 3 Xrotation Yrotation Zrotation
								JOINT Head
								{
									OFFSET 0.000000 7.643700 -2.377400
									CHANNELS 3 Xrotation Yrotation Zrotation
									JOINT HeadTop_End
									{
										OFFSET 0.000000 43.788605 -13.619600
										CHANNELS 3 Xrotation Yrotation Zrotation
										End Site
										{
											OFFSET 0 0 0
										}
									}
								}
							}
						}
						JOINT LeftShoulder_virtual
						{
							OFFSET 0.000000 0.000000 0.000000
							CHANNELS 3 Xrotation Yrotation Zrotation
							JOINT LeftShoulder
							{
								OFFSET 2.196100 4.412489 0.087492
								CHANNELS 3 Xrotation Yrotation Zrotation
								JOINT LeftShoulder_split
								{
									OFFSET 2.196100 4.412489 0.087492
									CHANNELS 3 Xrotation Yrotation Zrotation
									JOINT LeftArm
									{
										OFFSET 8.771219 -2.981674 -0.026999
										CHANNELS 3 Xrotation Yrotation Zrotation
										JOINT LeftForeArm
										{
											OFFSET 8.512804 0.000000 -0.000000
											CHANNELS 3 Xrotation Yrotation Zrotation
											JOINT LeftHand
											{
												OFFSET 18.484802 0.000000 -0.000000
												CHANNELS 3 Xrotation Yrotation Zrotation
												End Site
												{
													OFFSET 0 0 0
												}
											}
										}
									}
								}
							}
						}
						JOINT RightShoulder_virtual
						{
							OFFSET 0.000000 0.000000 0.000000
							CHANNELS 3 Xrotation Yrotation Zrotation
							JOINT RightShoulder
							{
								OFFSET -2.196100 4.412496 0.070690
								CHANNELS 3 Xrotation Yrotation Zrotation
								JOINT RightShoulder_split
								{
									OFFSET -2.196100 4.412496 0.070690
									CHANNELS 3 Xrotation Yrotation Zrotation
									JOINT RightArm
									{
										OFFSET -8.771282 -2.981682 -0.094208
										CHANNELS 3 Xrotation Yrotation Zrotation
										JOINT RightForeArm
										{
											OFFSET -8.494598 0.000000 0.000000
											CHANNELS 3 Xrotation Yrotation Zrotation
											JOINT RightHand
											{
												OFFSET -18.483803 0.000000 0.000001
												CHANNELS 3 Xrotation Yrotation Zrotation
												End Site
												{
													OFFSET 0 0 0
												}
											}
										}
									}
								}
							}
						}
					}
				}
			}
		}
	}
}
MOTION
Frames: 4
Frame Time: 0.03333333
-3.383545 28.354359 0.410240 0.000000 0.000000 0.000000 28.693628 -44.677333 12.427646 -94.454406 -5.419131 10.045454 67.967568 -0.645276 -0.846171 23.456120 -3.047411 -8.974911 -3.764032 2.541273 -0.065694 0.000000 0.000000 0.000000 26.485527 -43.403496 10.452542 -13.254393 -16.787797 -16.506959 48.686077 -7.375505 5.626188 -29.923031 -17.789448 28.078580 -4.043953 -1.130192 4.505072 0.000000 0.000000 0.000000 30.606324 -44.674836 13.447731 -1.607680 6.476961 -2.047175 -1.300066 2.493183 0.410428 0.907464 -1.001369 0.311683 0.000000 0.000000 0.000000 0.386458 0.203263 1.211002 10.536640 6.440889 -8.260885 -3.448500 20.545651 11.280740 0.000000 0.000000 0.000000 -2.663339 1.272527 0.924698 3.476010 3.755134 -9.876292 0.741603 4.667681 1.250189 -52.347413 -28.708791 -48.569199 0.513015 -71.017145 2.134641 0.000000 0.000000 0.000000 -2.349413 0.155657 0.714757 -12.686665 -0.468179 -4.124583 -8.011710 0.375210 -1.452733 -107.539819 37.138201 126.083762 -4.583928 24.903537 1.999849 0.000000 0.000000 0.000000 
-2.930087 28.732613 -1.750608 0.000000 0.000000 0.000000 29.109955 -42.444882 11.276243 -91.605937 -5.567457 8.368344 70.836268 -1.058373 0.056023 19.232592 -3.697494 -10.457492 -5.389897 1.842626 1.857939 0.000000 0.000000 0.000000 26.928827 -43.498709 10.196795 -12.504228 -19.106655 -13.472377 45.063607 -6.302741 4.826144 -31.576975 -17.065781 29.377398 -3.108049 -0.057246 2.476611 0.000000 0.000000 0.000000 32.454928 -44.532779 13.776282 -2.196085 6.710727 -1.504695 -1.316931 2.629156 0.307187 2.007999 -1.140558 0.482556 0.000000 0.000000 0.000000 0.432060 0.301315 1.166084 10.677579 6.285195 -8.022622 -3.199853 20.557276 11.226500 0.000000 0.000000 0.000000 -2.419746 1.300955 0.818984 3.370547 3.254196 -10.102450 1.468624 4.837444 1.265767 -52.125989 -28.998337 -48.311926 0.320324 -70.343695 1.895950 0.000000 0.000000 0.000000 -2.108818 0.348474 0.810129 -12.719151 -0.785815 -3.774211 -8.460081 0.542459 -1.429147 -107.391228 37.858509 126.112777 -4.313321 23.273646 1.959754 0.000000 0.000000 0.000000 
-2.388391 29.175932 -4.670631 0.000000 0.000000 0.000000 29.807697 -42.295687 10.614921 -86.662881 -4.826971 6.069908 72.122324 -1.942715 1.284986 12.644805 -5.080583 -11.251788 -8.950213 0.760599 4.671923 0.000000 0.000000 0.000000 27.883243 -45.485337 10.654429 -13.340663 -21.791874 -9.970567 41.880025 -5.070732 4.892749 -31.806712 -15.171112 29.553972 -4.386377 0.718453 -0.260106 0.000000 0.000000 0.000000 34.620678 -45.485109 14.385137 -2.423891 7.274367 -0.767866 -1.304762 3.101288 0.254142 2.464855 -1.241315 0.501383 0.000000 0.000000 0.000000 0.516875 0.696493 1.119205 10.743851 5.876046 -7.344493 -2.777320 19.826195 11.447452 0.000000 0.000000 0.000000 -2.241548 1.655410 0.745347 3.183673 2.364343 -10.292812 2.017358 4.652990 1.511972 -51.951375 -29.864302 -47.903907 -0.154484 -70.430991 1.340168 0.000000 0.000000 0.000000 -1.749792 0.864295 0.932402 -12.915093 -1.372453 -2.866322 -8.800197 0.586985 -1.740321 -106.972394 38.345382 125.691491 -3.963712 21.901292 1.752815 0.000000 0.000000 0.000000 
-1.990653 29.454672 -7.832535 0.000000 0.000000 0.000000 31.055572 -44.656282 10.995114 -81.459916 -4.050935 4.217381 71.731869 -3.416501 2.103116 5.671620 -6.883777 -10.481857 -12.603318 -0.497336 7.343724 0.000000 0.000000 0.000000 29.112814 -48.940938 11.709820 -15.281686 -24.125927 -7.322858 40.788814 -3.817547 5.818779 -31.143265 -13.255112 28.492158 -6.692080 1.111992 -2.819711 0.000000 0.000000 0.000000 36.421656 -47.388624 15.110250 -2.246124 8.058098 -0.023240 -1.327007 3.769488 0.269525 1.787797 -1.011114 0.421123 0.000000 0.000000 0.000000 0.610101 1.283060 1.097611 10.651718 5.308794 -6.394363 -2.337762 18.598928 11.812758 0.000000 0.000000 0.000000 -2.145521 2.212691 0.724768 2.977148 1.330983 -10.379183 2.327034 4.377362 1.710957 -51.938814 -31.087463 -47.289798 -0.865663 -71.046549 0.517854 0.000000 0.000000 0.000000 -1.365592 1.579242 1.079921 -13.196874 -2.068844 -1.773200 -8.974781 0.535856 -2.148721 -106.448614 38.383450 125.009633 -3.630709 21.281355 1.465266 0.000000 0.000000 0.000000 
